<?xml version="1.0" standalone="no"?>
<!DOCTYPE svg PUBLIC "-//W3C//DTD SVG 20010904//EN"
 "http://www.w3.org/TR/2001/REC-SVG-20010904/DTD/svg10.dtd">
<svg version="1.0" xmlns="http://www.w3.org/2000/svg"
 width="193.000000pt" height="202.000000pt" viewBox="0 0 193.000000 202.000000"
 preserveAspectRatio="xMidYMid meet">
<metadata>
Created by potrace 1.16, written by Peter Selinger 2001-2019
</metadata>
<g transform="translate(0.000000,202.000000) scale(0.100000,-0.100000)"
fill="#000000" stroke="none">
<path d="M1195 2014 c-19 -4 -407 -41 -865 -84 -118 -11 -235 -22 -259 -26
l-43 -6 6 -71 c4 -40 13 -259 21 -487 8 -228 19 -453 25 -500 5 -47 21 -197
35 -335 14 -137 27 -263 29 -280 2 -16 7 -63 11 -104 l7 -74 72 7 c39 4 153
15 253 24 l183 18 0 -48 0 -48 588 0 589 0 11 25 c15 32 15 38 2 30 -6 -4 -11
11 -12 37 0 24 -2 54 -3 68 -2 14 -5 79 -9 145 -3 66 -8 152 -11 190 -3 39 -8
108 -10 155 -2 47 -6 126 -9 175 -3 50 -8 177 -11 283 l-4 192 64 0 c36 0 65
3 65 8 0 4 -23 166 -52 360 l-53 352 -300 -1 c-165 -1 -309 -3 -320 -5z m-117
-100 c109 -7 145 -16 252 -57 30 -11 58 -26 62 -31 4 -6 8 -7 8 -3 0 10 81
-36 135 -77 49 -36 195 -185 195 -198 0 -5 -32 19 -70 55 -342 311 -885 295
-1209 -36 -212 -217 -287 -514 -205 -816 47 -174 135 -308 277 -422 27 -22 46
-39 42 -39 -9 0 -68 31 -81 44 -7 6 -27 22 -46 36 -84 62 -185 179 -224 259
-35 73 -78 177 -75 183 1 2 -4 23 -12 48 -24 82 -27 295 -4 360 2 8 10 35 16
60 21 78 61 176 86 210 13 18 22 38 18 44 -3 6 -3 8 2 4 5 -5 16 5 25 20 22
36 141 162 153 162 5 0 18 11 29 25 11 14 23 23 28 20 4 -3 13 2 20 10 7 8 16
12 21 9 5 -3 9 -1 9 3 0 17 166 90 245 108 51 12 77 16 155 22 41 3 77 7 79 9
2 2 8 1 13 -2 6 -4 31 -8 56 -10z m381 -318 c118 -73 236 -217 285 -348 76
-204 55 -462 -51 -635 -54 -87 -89 -127 -163 -188 -251 -204 -616 -219 -877
-36 -67 48 -153 133 -175 175 -9 18 -7 18 18 -4 15 -14 37 -34 48 -46 45 -45
213 -129 279 -139 12 -2 36 -7 52 -10 43 -10 250 -6 250 5 0 2 36 9 63 12 12
1 22 6 22 11 0 5 6 7 14 4 8 -3 20 1 26 8 7 8 15 14 18 13 4 -1 21 5 37 12 17
7 33 13 38 12 4 -1 7 2 7 6 0 5 16 17 35 28 19 10 35 22 35 26 0 3 8 9 18 12
11 4 25 17 32 31 7 14 22 27 32 31 11 3 17 8 15 11 -3 2 2 13 11 22 31 33 57
74 55 88 0 8 2 12 5 9 5 -6 29 22 31 37 0 4 8 21 17 39 9 17 18 40 20 52 2 12
10 51 17 87 13 61 15 198 4 259 -7 39 -19 84 -26 95 -3 6 -6 17 -8 25 -3 25
-56 130 -65 130 -4 0 -8 6 -8 13 0 16 -120 144 -159 169 -48 32 -10 19 48 -16z"/>
<path d="M1874 1165 c-3 -7 -4 -212 -1 -456 4 -456 6 -486 46 -557 6 -11 10
156 11 501 0 284 -3 517 -7 518 -5 0 -16 2 -26 4 -10 2 -21 -2 -23 -10z"/>
</g>
</svg>
